{"title":"The Terminator 1 + 2 [Eng,Ger,Spa] [emandoz 1-gig rip]","uid":5036767,"size":2106019281,"categoryP":"video","categoryS":"movies","magnet":"?xt=urn:btih:065c74bf879c82079493b1445781b06990f6dadc&amp;dn=The+Terminator+1+%2B+2+%5BEng%2CGer%2CSpa%5D+%5Bemandoz+1-gig+rip%5D&amp;tr=udp%3A%2F%2Ftracker.openbittorrent.com%3A80&amp;tr=udp%3A%2F%2Fopen.demonii.com%3A1337&amp;tr=udp%3A%2F%2Ftracker.coppersurfer.tk%3A6969&amp;tr=udp%3A%2F%2Fexodus.desync.com%3A6969","seeders":1,"leechers":0,"uploader":"emandoz","files":6,"time":1249159339,"description":"emandoz presents:\n\nThe Terminator 1 + 2 [Eng,Ger,Spa] [emandoz 1-gig rip]\n\n\n\nThe Terminator 1 + 2\nAudio: English, German, Spanish\nSubs included\nSource: PAL DVDs\n\n--------------------------------------------------------------------\nThe Terminator (1984) (uncut)\n\nVideo\nID                               : 1\nFormat                           : AVC\nFormat/Info                      : Advanced Video Codec\nFormat profile                   : &lt;a class=&quot;__cf_email__&quot; href=&quot;/cdn-cgi/l/email-protection&quot; data-cfemail=&quot;89c1e0eee1c9c5baa7b9&quot;&gt;[email&amp;#160;protected]&lt;/a&gt;&lt;script cf-hash='f9e31' type=&quot;text/javascript&quot;&gt;\n/* &lt;![CDATA[ */!function(){try{var t=&quot;currentScript&quot;in document?document.currentScript:function(){for(var t=document.getElementsByTagName(&quot;script&quot;),e=t.length;e--;)if(t[e].getAttribute(&quot;cf-hash&quot;))return t[e]}();if(t&amp;&amp;t.previousSibling){var e,r,n,i,c=t.previousSibling,a=c.getAttribute(&quot;data-cfemail&quot;);if(a){for(e=&quot;&quot;,r=parseInt(a.substr(0,2),16),n=2;a.length-n;n+=2)i=parseInt(a.substr(n,2),16)^r,e+=String.fromCharCode(i);e=document.createTextNode(e),c.parentNode.replaceChild(e,c)}}}catch(u){}}();/* ]]&gt; */&lt;/script&gt;\nFormat settings, CABAC           : Yes\nFormat settings, ReFrames        : 3 frames\nMuxing mode                      : Container profile=&lt;a class=&quot;__cf_email__&quot; href=&quot;/cdn-cgi/l/email-protection&quot; data-cfemail=&quot;d88db6b3b6b7afb698ebf6e8&quot;&gt;[email&amp;#160;protected]&lt;/a&gt;&lt;script cf-hash='f9e31' type=&quot;text/javascript&quot;&gt;\n/* &lt;![CDATA[ */!function(){try{var t=&quot;currentScript&quot;in document?document.currentScript:function(){for(var t=document.getElementsByTagName(&quot;script&quot;),e=t.length;e--;)if(t[e].getAttribute(&quot;cf-hash&quot;))return t[e]}();if(t&amp;&amp;t.previousSibling){var e,r,n,i,c=t.previousSibling,a=c.getAttribute(&quot;data-cfemail&quot;);if(a){for(e=&quot;&quot;,r=parseInt(a.substr(0,2),16),n=2;a.length-n;n+=2)i=parseInt(a.substr(n,2),16)^r,e+=String.fromCharCode(i);e=document.createTextNode(e),c.parentNode.replaceChild(e,c)}}}catch(u){}}();/* ]]&gt; */&lt;/script&gt;\nCodec ID                         : V_MPEG4/ISO/AVC\nDuration                         : 1h 42mn\nNominal bit rate                 : 840 Kbps\nWidth                            : 718 pixels\nHeight                           : 554 pixels\nDisplay aspect ratio             : 16/9\nFrame rate                       : 25.000 fps\nResolution                       : 24 bits\nColorimetry                      : 4:2:0\nScan type                        : Progressive\nBits/(Pixel*Frame)               : 0.084\nWriting library                  : x264 core 65\nEncoding settings                : cabac=1 / ref=3 / deblock=1:0:0 / analyse=0x3:0x133 / me=umh / subme=9 / psy_rd=1.0:1.0 / mixed_ref=1 / me_range=16 / chroma_me=1 / trellis=1 / 8x8dct=1 / cqm=0 / deadzone=21,11 / chroma_qp_offset=-4 / threads=1 / nr=0 / decimate=1 / mbaff=0 / bframes=6 / b_pyramid=1 / b_adapt=1 / b_bias=0 / direct=3 / wpredb=1 / keyint=250 / keyint_min=25 / scenecut=40 / rc=2pass / bitrate=840 / ratetol=1.0 / qcomp=0.60 / qpmin=10 / qpmax=51 / qpstep=4 / cplxblur=20.0 / qblur=0.5 / ip_ratio=1.40 / pb_ratio=1.30 / aq=1:1.00\n\nAudio #1\nID                               : 2\nFormat                           : AAC\nFormat/Info                      : Advanced Audio Codec\nFormat version                   : Version 4\nFormat profile                   : LC\nFormat settings, SBR             : No\nCodec ID                         : A_AAC\nDuration                         : 1h 42mn\nChannel(s)                       : 6 channels\nChannel positions                : Front: L C R, Rear: L R, LFE\nSampling rate                    : 48.0 KHz\nResolution                       : 16 bits\nLanguage                         : English\nNative Bitrate                   : 256 kbps\n\nAudio #2\nID                               : 3\nFormat                           : Vorbis\nFormat settings, Floor           : 1\nCodec ID                         : A_VORBIS\nDuration                         : 1h 42mn\nBit rate mode                    : Constant\nBit rate                         : 128 Kbps\nChannel(s)                       : 2 channels, Dolby Surround ProLogic II\nSampling rate                    : 48.0 KHz\nStream size                      : 94.1 MiB (9%)\nWriting library                  : aoTuV Beta 5 (UTC 2006-10-24)\nLanguage                         : German\n\nAudio #3\nID                               : 4\nFormat                           : Vorbis\nFormat settings, Floor           : 1\nCodec ID                         : A_VORBIS\nDuration                         : 1h 42mn\nBit rate mode                    : Constant\nBit rate                         : 128 Kbps\nChannel(s)                       : 2 channels, Dolby Surround ProLogic II\nSampling rate                    : 48.0 KHz\nStream size                      : 94.1 MiB (9%)\nWriting library                  : aoTuV Beta 5 (UTC 2006-10-24)\nLanguage                         : Spanish\n\nSubs\nGerman, English, Spanish, German for the hearing impaired\n--------------------------------------------------------------------\n\n\n\n--------------------------------------------------------------------\nThe Terminator 2: Judgment Day (1991) (Ultimate Edition)\n\nVideo\nID                               : 1\nFormat                           : AVC\nFormat/Info                      : Advanced Video Codec\nFormat profile                   : &lt;a class=&quot;__cf_email__&quot; href=&quot;/cdn-cgi/l/email-protection&quot; data-cfemail=&quot;0a42636d624a4639243a&quot;&gt;[email&amp;#160;protected]&lt;/a&gt;&lt;script cf-hash='f9e31' type=&quot;text/javascript&quot;&gt;\n/* &lt;![CDATA[ */!function(){try{var t=&quot;currentScript&quot;in document?document.currentScript:function(){for(var t=document.getElementsByTagName(&quot;script&quot;),e=t.length;e--;)if(t[e].getAttribute(&quot;cf-hash&quot;))return t[e]}();if(t&amp;&amp;t.previousSibling){var e,r,n,i,c=t.previousSibling,a=c.getAttribute(&quot;data-cfemail&quot;);if(a){for(e=&quot;&quot;,r=parseInt(a.substr(0,2),16),n=2;a.length-n;n+=2)i=parseInt(a.substr(n,2),16)^r,e+=String.fromCharCode(i);e=document.createTextNode(e),c.parentNode.replaceChild(e,c)}}}catch(u){}}();/* ]]&gt; */&lt;/script&gt;\nFormat settings, CABAC           : Yes\nFormat settings, ReFrames        : 3 frames\nMuxing mode                      : Container profile=&lt;a class=&quot;__cf_email__&quot; href=&quot;/cdn-cgi/l/email-protection&quot; data-cfemail=&quot;f2a79c999c9d859cb2c1dcc2&quot;&gt;[email&amp;#160;protected]&lt;/a&gt;&lt;script cf-hash='f9e31' type=&quot;text/javascript&quot;&gt;\n/* &lt;![CDATA[ */!function(){try{var t=&quot;currentScript&quot;in document?document.currentScript:function(){for(var t=document.getElementsByTagName(&quot;script&quot;),e=t.length;e--;)if(t[e].getAttribute(&quot;cf-hash&quot;))return t[e]}();if(t&amp;&amp;t.previousSibling){var e,r,n,i,c=t.previousSibling,a=c.getAttribute(&quot;data-cfemail&quot;);if(a){for(e=&quot;&quot;,r=parseInt(a.substr(0,2),16),n=2;a.length-n;n+=2)i=parseInt(a.substr(n,2),16)^r,e+=String.fromCharCode(i);e=document.createTextNode(e),c.parentNode.replaceChild(e,c)}}}catch(u){}}();/* ]]&gt; */&lt;/script&gt;\nCodec ID                         : V_MPEG4/ISO/AVC\nDuration                         : 2h 26mn\nNominal bit rate                 : 601 Kbps\nWidth                            : 640 pixels\nHeight                           : 384 pixels\nDisplay aspect ratio             : 2.35\nOriginal display aspect ratio    : 1.667\nFrame rate                       : 25.000 fps\nResolution                       : 24 bits\nColorimetry                      : 4:2:0\nScan type                        : Progressive\nBits/(Pixel*Frame)               : 0.098\nWriting library                  : x264 core 65\nEncoding settings                : cabac=1 / ref=3 / deblock=1:0:0 / analyse=0x3:0x133 / me=umh / subme=9 / psy_rd=1.0:1.0 / mixed_ref=1 / me_range=16 / chroma_me=1 / trellis=1 / 8x8dct=1 / cqm=0 / deadzone=21,11 / chroma_qp_offset=-4 / threads=1 / nr=0 / decimate=1 / mbaff=0 / bframes=6 / b_pyramid=1 / b_adapt=1 / b_bias=0 / direct=3 / wpredb=1 / keyint=250 / keyint_min=25 / scenecut=40 / rc=2pass / bitrate=601 / ratetol=1.0 / qcomp=0.60 / qpmin=10 / qpmax=51 / qpstep=4 / cplxblur=20.0 / qblur=0.5 / ip_ratio=1.40 / pb_ratio=1.30 / aq=1:1.00\nLanguage                         : English\n\nAudio #1\nID                               : 2\nFormat                           : AAC\nFormat/Info                      : Advanced Audio Codec\nFormat version                   : Version 4\nFormat profile                   : LC\nFormat settings, SBR             : No\nCodec ID                         : A_AAC\nDuration                         : 2h 26mn\nChannel(s)                       : 6 channels\nChannel positions                : Front: L C R, Rear: L R, LFE\nSampling rate                    : 48.0 KHz\nResolution                       : 16 bits\nLanguage                         : English\nNative Bitrate                   : 256 kbps\n\nAudio #2\nID                               : 3\nFormat                           : Vorbis\nFormat settings, Floor           : 1\nCodec ID                         : A_VORBIS\nDuration                         : 2h 26mn\nBit rate mode                    : Constant\nBit rate                         : 86.0 Kbps\nChannel(s)                       : 2 channels, Dolby Surround ProLogic II\nSampling rate                    : 48.0 KHz\nStream size                      : 90.4 MiB (9%)\nWriting library                  : aoTuV Beta 5 (UTC 2006-10-24)\nLanguage                         : German\n\nAudio #3\nID                               : 4\nFormat                           : Vorbis\nFormat settings, Floor           : 1\nCodec ID                         : A_VORBIS\nDuration                         : 2h 26mn\nBit rate mode                    : Constant\nBit rate                         : 32.0 Kbps\nChannel(s)                       : 1 channel\nSampling rate                    : 48.0 KHz\nStream size                      : 33.6 MiB (3%)\nWriting library                  : aoTuV Beta 5 (UTC 2006-10-24)\nLanguage                         : English (Commentary)\n\nSubs\nGerman, English, Turkish\n--------------------------------------------------------------------\n\n\n--------------------------------------------------------------------\nScreenshots:\n &lt;a href=&quot;\nhttp://img44.imageshack.us/img44/1723/image001jot.jpg&quot; rel=&quot;nofollow&quot; target=&quot;_NEW&quot;&gt;\nhttp://img44.imageshack.us/img44/1723/image001jot.jpg&lt;/a&gt; &lt;a href=&quot;\nhttp://img29.imageshack.us/img29/9728/image002khm.jpg&quot; rel=&quot;nofollow&quot; target=&quot;_NEW&quot;&gt;\nhttp://img29.imageshack.us/img29/9728/image002khm.jpg&lt;/a&gt; &lt;a href=&quot;\nhttp://img44.imageshack.us/img44/8863/image002qft.jpg&quot; rel=&quot;nofollow&quot; target=&quot;_NEW&quot;&gt;\nhttp://img44.imageshack.us/img44/8863/image002qft.jpg&lt;/a&gt; &lt;a href=&quot;\nhttp://img43.imageshack.us/img43/4638/image003ghf.jpg&quot; rel=&quot;nofollow&quot; target=&quot;_NEW&quot;&gt;\nhttp://img43.imageshack.us/img43/4638/image003ghf.jpg&lt;/a&gt; &lt;a href=&quot;\nhttp://img31.imageshack.us/img31/6103/image004vgf.jpg&quot; rel=&quot;nofollow&quot; target=&quot;_NEW&quot;&gt;\nhttp://img31.imageshack.us/img31/6103/image004vgf.jpg&lt;/a&gt; &lt;a href=&quot;\nhttp://img29.imageshack.us/img29/479/image005i.jpg&quot; rel=&quot;nofollow&quot; target=&quot;_NEW&quot;&gt;\nhttp://img29.imageshack.us/img29/479/image005i.jpg&lt;/a&gt; &lt;a href=&quot;\nhttp://img13.imageshack.us/img13/3916/image006sro.jpg&quot; rel=&quot;nofollow&quot; target=&quot;_NEW&quot;&gt;\nhttp://img13.imageshack.us/img13/3916/image006sro.jpg&lt;/a&gt; &lt;a href=&quot;\nhttp://img31.imageshack.us/img31/5843/image007ltj.jpg&quot; rel=&quot;nofollow&quot; target=&quot;_NEW&quot;&gt;\nhttp://img31.imageshack.us/img31/5843/image007ltj.jpg&lt;/a&gt; &lt;a href=&quot;\nhttp://img13.imageshack.us/img13/7402/image008ina.jpg&quot; rel=&quot;nofollow&quot; target=&quot;_NEW&quot;&gt;\nhttp://img13.imageshack.us/img13/7402/image008ina.jpg&lt;/a&gt;\n","torrent":{"xt":"urn:btih:065c74bf879c82079493b1445781b06990f6dadc","amp;dn":"The+Terminator+1+%2B+2+%5BEng%2CGer%2CSpa%5D+%5Bemandoz+1-gig+rip%5D","amp;tr":["udp%3A%2F%2Ftracker.openbittorrent.com%3A80","udp%3A%2F%2Fopen.demonii.com%3A1337","udp%3A%2F%2Ftracker.coppersurfer.tk%3A6969","udp%3A%2F%2Fexodus.desync.com%3A6969"],"infoHash":"065c74bf879c82079493b1445781b06990f6dadc","infoHashBuffer":{"type":"Buffer","data":[6,92,116,191,135,156,130,7,148,147,177,68,87,129,176,105,144,246,218,220]},"announce":[],"urlList":[]}}